<svg width="1000" height="1000" viewBox="0 0 1000 1000" fill="none" xmlns="http://www.w3.org/2000/svg">
<path d="M500.163 0C291.418 0 230.368 0.21543 218.501 1.2C175.663 4.76182 149.006 11.5087 119.965 25.971C97.5852 37.0878 79.9344 49.9733 62.5146 68.0364C30.79 100.978 11.5628 141.504 4.60242 189.678C1.21861 213.064 0.234037 217.833 0.0340997 337.29C-0.0426247 377.109 0.0340997 429.513 0.0340997 499.804C0.0340997 708.437 0.26465 769.442 1.26471 781.289C4.72563 822.985 11.2627 849.218 25.1063 877.913C51.563 932.84 102.092 974.075 161.619 989.461C182.231 994.769 204.996 997.692 234.221 999.077C246.603 999.615 372.81 1000 499.094 1000C625.378 1000 751.662 999.846 763.736 999.231C797.576 997.638 817.227 995 838.953 989.384C898.865 973.921 948.471 933.302 975.466 877.605C989.041 849.602 995.924 822.369 999.039 782.851C999.715 774.235 1000 636.861 1000 499.673C1000 362.461 999.692 225.342 999.016 216.726C995.862 176.569 988.979 149.567 974.966 121.025C963.469 97.6619 950.702 80.2141 932.167 62.3747C899.089 30.7718 858.634 11.5393 810.428 4.58495C787.071 1.20756 782.418 0.207496 662.902 0H500.163Z" fill="url(#paint0_radial_89_13)"/>
<path d="M500.163 0C291.418 0 230.368 0.21543 218.501 1.2C175.663 4.76182 149.006 11.5087 119.965 25.971C97.5852 37.0878 79.9344 49.9733 62.5146 68.0364C30.79 100.978 11.5628 141.504 4.60242 189.678C1.21861 213.064 0.234037 217.833 0.0340997 337.29C-0.0426247 377.109 0.0340997 429.513 0.0340997 499.804C0.0340997 708.437 0.26465 769.442 1.26471 781.289C4.72563 822.985 11.2627 849.218 25.1063 877.913C51.563 932.84 102.092 974.075 161.619 989.461C182.231 994.769 204.996 997.692 234.221 999.077C246.603 999.615 372.81 1000 499.094 1000C625.378 1000 751.662 999.846 763.736 999.231C797.576 997.638 817.227 995 838.953 989.384C898.865 973.921 948.471 933.302 975.466 877.605C989.041 849.602 995.924 822.369 999.039 782.851C999.715 774.235 1000 636.861 1000 499.673C1000 362.461 999.692 225.342 999.016 216.726C995.862 176.569 988.979 149.567 974.966 121.025C963.469 97.6619 950.702 80.2141 932.167 62.3747C899.089 30.7718 858.634 11.5393 810.428 4.58495C787.071 1.20756 782.418 0.207496 662.902 0H500.163Z" fill="url(#paint1_radial_89_13)"/>
<path d="M500.163 0C291.418 0 230.368 0.21543 218.501 1.2C175.663 4.76182 149.006 11.5087 119.965 25.971C97.5852 37.0878 79.9344 49.9733 62.5146 68.0364C30.79 100.978 11.5628 141.504 4.60242 189.678C1.21861 213.064 0.234037 217.833 0.0340997 337.29C-0.0426247 377.109 0.0340997 429.513 0.0340997 499.804C0.0340997 708.437 0.26465 769.442 1.26471 781.289C4.72563 822.985 11.2627 849.218 25.1063 877.913C51.563 932.84 102.092 974.075 161.619 989.461C182.231 994.769 204.996 997.692 234.221 999.077C246.603 999.615 372.81 1000 499.094 1000C625.378 1000 751.662 999.846 763.736 999.231C797.576 997.638 817.227 995 838.953 989.384C898.865 973.921 948.471 933.302 975.466 877.605C989.041 849.602 995.924 822.369 999.039 782.851C999.715 774.235 1000 636.861 1000 499.673C1000 362.461 999.692 225.342 999.016 216.726C995.862 176.569 988.979 149.567 974.966 121.025C963.469 97.6619 950.702 80.2141 932.167 62.3747C899.089 30.7718 858.634 11.5393 810.428 4.58495C787.071 1.20756 782.418 0.207496 662.902 0H500.163Z" fill="url(#paint2_radial_89_13)"/>
<path d="M500.163 0C291.418 0 230.368 0.21543 218.501 1.2C175.663 4.76182 149.006 11.5087 119.965 25.971C97.5852 37.0878 79.9344 49.9733 62.5146 68.0364C30.79 100.978 11.5628 141.504 4.60242 189.678C1.21861 213.064 0.234037 217.833 0.0340997 337.29C-0.0426247 377.109 0.0340997 429.513 0.0340997 499.804C0.0340997 708.437 0.26465 769.442 1.26471 781.289C4.72563 822.985 11.2627 849.218 25.1063 877.913C51.563 932.84 102.092 974.075 161.619 989.461C182.231 994.769 204.996 997.692 234.221 999.077C246.603 999.615 372.81 1000 499.094 1000C625.378 1000 751.662 999.846 763.736 999.231C797.576 997.638 817.227 995 838.953 989.384C898.865 973.921 948.471 933.302 975.466 877.605C989.041 849.602 995.924 822.369 999.039 782.851C999.715 774.235 1000 636.861 1000 499.673C1000 362.461 999.692 225.342 999.016 216.726C995.862 176.569 988.979 149.567 974.966 121.025C963.469 97.6619 950.702 80.2141 932.167 62.3747C899.089 30.7718 858.634 11.5393 810.428 4.58495C787.071 1.20756 782.418 0.207496 662.902 0H500.163Z" fill="url(#paint3_radial_89_13)"/>
<path d="M500.203 128.402C399.226 128.402 386.554 128.843 346.894 130.647C307.312 132.458 280.294 138.72 256.653 147.908C232.199 157.397 211.455 170.091 190.789 190.749C170.108 211.401 157.404 232.129 147.876 256.557C138.659 280.188 132.384 307.194 130.603 346.731C128.829 386.361 128.364 399.032 128.364 499.933C128.364 600.835 128.814 613.459 130.61 653.089C132.431 692.642 138.697 719.64 147.884 743.263C157.388 767.699 170.092 788.427 190.766 809.078C211.425 829.745 232.168 842.47 256.607 851.959C280.263 861.147 307.289 867.409 346.863 869.22C386.523 871.023 399.187 871.465 500.156 871.465C601.141 871.465 613.774 871.024 653.434 869.22C693.016 867.409 720.065 861.147 743.721 851.959C768.167 842.47 788.88 829.745 809.539 809.078C830.22 788.427 842.924 767.699 852.452 743.271C861.592 719.64 867.866 692.634 869.725 653.097C871.506 613.467 871.971 600.835 871.971 499.933C871.971 399.031 871.506 386.369 869.725 346.738C867.866 307.186 861.592 280.188 852.452 256.565C842.924 232.129 830.22 211.4 809.539 190.749C788.857 170.083 768.175 157.389 743.698 147.907C719.995 138.72 692.962 132.458 653.38 130.647C613.72 128.843 601.094 128.402 500.087 128.402H500.203ZM466.848 195.355C476.748 195.34 487.794 195.355 500.203 195.355C599.475 195.355 611.241 195.711 650.444 197.491C686.695 199.148 706.37 205.2 719.476 210.286C736.827 217.02 749.198 225.07 762.203 238.073C775.216 251.077 783.272 263.461 790.027 280.799C795.116 293.88 801.181 313.541 802.831 349.765C804.612 388.93 805 400.696 805 499.848C805 599 804.612 610.766 802.831 649.931C801.173 686.156 795.116 705.816 790.027 718.897C783.288 736.235 775.216 748.581 762.203 761.576C749.19 774.58 736.835 782.63 719.476 789.364C706.385 794.473 686.695 800.51 650.444 802.166C611.249 803.946 599.475 804.333 500.203 804.333C400.922 804.333 389.156 803.946 349.961 802.166C313.71 800.495 294.036 794.442 280.922 789.356C263.57 782.622 251.177 774.572 238.164 761.569C225.15 748.565 217.095 736.212 210.34 718.866C205.251 705.785 199.186 686.125 197.536 649.9C195.754 610.735 195.398 598.97 195.398 499.755C195.398 400.541 195.754 388.837 197.536 349.672C199.194 313.448 205.251 293.788 210.34 280.691C217.079 263.353 225.15 250.969 238.164 237.965C251.177 224.961 263.57 216.912 280.922 210.162C294.028 205.053 313.71 199.016 349.961 197.352C384.261 195.804 397.553 195.34 466.849 195.262L466.848 195.355ZM698.671 257.045C674.038 257.045 654.053 276.991 654.053 301.613C654.053 326.227 674.038 346.197 698.671 346.197C723.302 346.197 743.287 326.227 743.287 301.613C743.287 276.999 723.302 257.029 698.67 257.029L698.671 257.045ZM500.203 309.136C394.756 309.136 309.264 394.565 309.264 499.933C309.264 605.301 394.756 690.691 500.203 690.691C605.649 690.691 691.11 605.301 691.11 499.933C691.11 394.565 605.641 309.136 500.195 309.136H500.203ZM500.203 376.089C568.646 376.089 624.139 431.533 624.139 499.933C624.139 568.326 568.646 623.777 500.203 623.777C431.752 623.777 376.267 568.326 376.267 499.933C376.267 431.533 431.752 376.089 500.203 376.089Z" fill="white"/>
<defs>
<radialGradient id="paint0_radial_89_13" cx="0" cy="0" r="1" gradientUnits="userSpaceOnUse" gradientTransform="translate(967.71 468.712) rotate(164.25) scale(638.943 460.328)">
<stop stop-color="#FF005F"/>
<stop offset="1" stop-color="#FC01D8"/>
</radialGradient>
<radialGradient id="paint1_radial_89_13" cx="0" cy="0" r="1" gradientUnits="userSpaceOnUse" gradientTransform="translate(265.617 1077.02) rotate(-90) scale(798.219 846.893)">
<stop stop-color="#FFCC00"/>
<stop offset="0.1242" stop-color="#FFCC00"/>
<stop offset="0.5672" stop-color="#FE4A05"/>
<stop offset="0.6942" stop-color="#FF0F3F"/>
<stop offset="1" stop-color="#FE0657" stop-opacity="0"/>
</radialGradient>
<radialGradient id="paint2_radial_89_13" cx="0" cy="0" r="1" gradientUnits="userSpaceOnUse" gradientTransform="translate(525.269 985.897) rotate(-59.8703) scale(330.07 429.715)">
<stop stop-color="#FFCC00"/>
<stop offset="1" stop-color="#FFCC00" stop-opacity="0"/>
</radialGradient>
<radialGradient id="paint3_radial_89_13" cx="0" cy="0" r="1" gradientUnits="userSpaceOnUse" gradientTransform="translate(135.679 40.7197) rotate(164.274) scale(631.856 215.273)">
<stop stop-color="#780CFF"/>
<stop offset="1" stop-color="#820BFF" stop-opacity="0"/>
</radialGradient>
</defs>
</svg>
